<svg width="500" height="500" viewBox="0 0 500 500" fill="none" xmlns="http://www.w3.org/2000/svg">
<g clip-path="url(#clip0_255_141)">
<rect width="500" height="500" fill="#1F1E25"/>
<rect x="-95" y="-95" width="689" height="689" fill="#1F1E25"/>
<path fill-rule="evenodd" clip-rule="evenodd" d="M357.012 0H0V357.006C0 254.208 0 202.809 17.499 147.479C39.4866 87.0685 87.0741 39.4809 147.484 17.4933C202.815 0 254.214 0 357.012 0ZM666.988 0C769.792 0 821.191 0 876.521 17.4933C936.932 39.4809 984.519 87.0685 1006.51 147.479C1024 202.809 1024 254.208 1024 357.006V0H666.988ZM1024 666.988C1024 769.786 1024 821.185 1006.51 876.521C984.519 936.926 936.932 984.513 876.521 1006.5C821.191 1024 769.792 1024 666.988 1024H1024V666.988ZM357.012 1024C254.214 1024 202.815 1024 147.484 1006.5C87.0741 984.513 39.4866 936.926 17.499 876.521C0 821.185 0 769.786 0 666.988V1024H357.012Z" fill="#1F1E25"/>
<path d="M337.54 195.297L337.309 195.393L337.356 195.505L337.472 195.537L337.54 195.297ZM334.555 189.744V189.494H334.084L334.348 189.884L334.555 189.744ZM223.618 385.538L223.801 385.368L223.727 385.288H223.618V385.538ZM125.232 329.791L125.389 329.986L125.631 329.791L125.389 329.596L125.232 329.791ZM125.232 280.842L125.389 281.037L125.631 280.842L125.389 280.648L125.232 280.842ZM125.232 231.894L125.389 232.089L125.631 231.894L125.389 231.699L125.232 231.894ZM161.96 176.147V176.397H162.432L162.167 176.007L161.96 176.147ZM161.96 140.795L162.167 140.936L162.432 140.545H161.96V140.795ZM298.243 127.199L298.036 127.058L297.771 127.449H298.243V127.199ZM226.206 225.096V225.346H226.31L226.384 225.271L226.206 225.096ZM316.669 191.52L316.648 191.769L316.779 191.295L316.669 191.52ZM214.725 238.692L214.928 238.839L215.214 238.442H214.725V238.692ZM197.456 274.044V274.294H197.644L197.696 274.114L197.456 274.044ZM194.371 287.641L194.618 287.681L194.666 287.391H194.371V287.641ZM193.956 322.993V323.243H194.244L194.204 322.958L193.956 322.993ZM212.82 371.941V372.191H213.292L213.027 371.801L212.82 371.941ZM196.7 336.589L196.941 336.525L196.892 336.339H196.7V336.589ZM314.775 358.966L314.719 358.723L314.525 358.767V358.966H314.775ZM299.224 358.966H299.474V358.767L299.28 358.723L299.224 358.966ZM299.224 253.608L299.28 253.852L299.474 253.807V253.608H299.224ZM314.775 253.608H314.525V253.807L314.719 253.852L314.775 253.608ZM337.771 195.201C336.947 193.214 335.937 191.341 334.762 189.604L334.348 189.884C335.504 191.593 336.498 193.436 337.309 195.393L337.771 195.201ZM421.5 306.677C421.5 253.525 385.929 208.625 337.608 195.056L337.472 195.537C385.581 209.047 421 253.751 421 306.677H421.5ZM307.031 422.5C370.152 422.5 421.5 370.539 421.5 306.677H421C421 370.269 369.871 422 307.031 422V422.5ZM223.434 385.708C244.338 408.332 274.077 422.5 307.031 422.5V422C274.224 422 244.616 407.895 223.801 385.368L223.434 385.708ZM144.437 385.788H223.618V385.288H144.437V385.788ZM113.281 354.265C113.281 371.644 127.255 385.788 144.437 385.788V385.288C127.537 385.288 113.781 371.373 113.781 354.265H113.281ZM125.075 329.596C117.896 335.376 113.281 344.283 113.281 354.265H113.781C113.781 344.441 118.323 335.674 125.389 329.986L125.075 329.596ZM113.281 305.317C113.281 315.299 117.896 324.206 125.075 329.986L125.389 329.596C118.323 323.908 113.781 315.141 113.781 305.317H113.281ZM125.075 280.648C117.896 286.427 113.281 295.335 113.281 305.317H113.781C113.781 295.492 118.323 286.725 125.389 281.037L125.075 280.648ZM113.281 256.368C113.281 266.35 117.896 275.258 125.075 281.037L125.389 280.648C118.323 274.96 113.781 266.193 113.781 256.368H113.281ZM125.075 231.699C117.896 237.479 113.281 246.386 113.281 256.368H113.781C113.781 246.544 118.323 237.777 125.389 232.089L125.075 231.699ZM113.281 207.42C113.281 217.402 117.896 226.309 125.075 232.089L125.389 231.699C118.323 226.011 113.781 217.244 113.781 207.42H113.281ZM144.437 175.897C127.255 175.897 113.281 190.041 113.281 207.42H113.781C113.781 190.312 127.537 176.397 144.437 176.397V175.897ZM161.96 175.897H144.437V176.397H161.96V175.897ZM156.281 158.471C156.281 165.079 158.305 171.215 161.753 176.288L162.167 176.007C158.773 171.014 156.781 164.975 156.781 158.471H156.281ZM161.753 140.655C158.305 145.727 156.281 151.864 156.281 158.471H156.781C156.781 151.967 158.773 145.928 162.167 140.936L161.753 140.655ZM108.156 141.045H161.96V140.545H108.156V141.045ZM77 109.523C77 126.901 90.9739 141.045 108.156 141.045V140.545C91.2556 140.545 77.5 126.631 77.5 109.523H77ZM108.156 78C90.9739 78 77 92.1439 77 109.523H77.5C77.5 92.4145 91.2556 78.5 108.156 78.5V78ZM272.765 78H108.156V78.5H272.765V78ZM303.921 109.523C303.921 92.1439 289.948 78 272.765 78V78.5C289.666 78.5 303.421 92.4145 303.421 109.523H303.921ZM298.449 127.339C301.897 122.267 303.921 116.13 303.921 109.523H303.421C303.421 116.027 301.429 122.066 298.036 127.058L298.449 127.339ZM352.046 126.949H298.243V127.449H352.046V126.949ZM383.203 158.471C383.203 141.092 369.229 126.949 352.046 126.949V127.449C368.947 127.449 382.703 141.363 382.703 158.471H383.203ZM352.046 189.994C369.229 189.994 383.203 175.85 383.203 158.471H382.703C382.703 175.579 368.947 189.494 352.046 189.494V189.994ZM334.555 189.994H352.046V189.494H334.555V189.994ZM352.046 141.045C361.538 141.045 369.265 148.86 369.265 158.471H369.765C369.765 148.59 361.82 140.545 352.046 140.545V141.045ZM187.437 141.045H352.046V140.545H187.437V141.045ZM170.219 158.471C170.219 148.86 177.945 141.045 187.437 141.045V140.545C177.664 140.545 169.719 148.59 169.719 158.471H170.219ZM187.437 175.897C177.945 175.897 170.219 168.082 170.219 158.471H169.719C169.719 168.353 177.664 176.397 187.437 176.397V175.897ZM309.046 175.897H187.437V176.397H309.046V175.897ZM352.046 175.897H309.046V176.397H352.046V175.897ZM369.265 158.471C369.265 168.082 361.538 175.897 352.046 175.897V176.397C361.82 176.397 369.765 168.353 369.765 158.471H369.265ZM108.156 126.949C98.6644 126.949 90.9375 119.134 90.9375 109.523H90.4375C90.4375 119.404 98.3827 127.449 108.156 127.449V126.949ZM272.765 126.949H108.156V127.449H272.765V126.949ZM289.984 109.523C289.984 119.134 282.257 126.949 272.765 126.949V127.449C282.539 127.449 290.484 119.404 290.484 109.523H289.984ZM272.765 92.0968C282.257 92.0968 289.984 99.9118 289.984 109.523H290.484C290.484 99.6412 282.539 91.5968 272.765 91.5968V92.0968ZM108.156 92.0968H272.765V91.5968H108.156V92.0968ZM90.9375 109.523C90.9375 99.9118 98.6644 92.0968 108.156 92.0968V91.5968C98.3827 91.5968 90.4375 99.6412 90.4375 109.523H90.9375ZM144.437 189.994H309.046V189.494H144.437V189.994ZM127.219 207.42C127.219 197.809 134.946 189.994 144.437 189.994V189.494C134.665 189.494 126.719 197.538 126.719 207.42H127.219ZM144.437 224.846C134.946 224.846 127.219 217.031 127.219 207.42H126.719C126.719 217.301 134.665 225.346 144.437 225.346V224.846ZM226.206 224.846H144.437V225.346H226.206V224.846ZM307.031 190.854C275.42 190.854 246.762 203.888 226.028 224.92L226.384 225.271C247.029 204.33 275.561 191.354 307.031 191.354V190.854ZM316.69 191.27C313.505 191 310.285 190.854 307.031 190.854V191.354C310.271 191.354 313.476 191.499 316.648 191.769L316.69 191.27ZM309.046 189.994C311.713 189.994 314.267 190.621 316.559 191.744L316.779 191.295C314.421 190.14 311.792 189.494 309.046 189.494V189.994ZM144.437 238.942H214.725V238.442H144.437V238.942ZM127.219 256.368C127.219 246.757 134.946 238.942 144.437 238.942V238.442C134.664 238.442 126.719 246.487 126.719 256.368H127.219ZM144.437 273.794C134.946 273.794 127.219 265.98 127.219 256.368H126.719C126.719 266.25 134.664 274.294 144.437 274.294V273.794ZM197.456 273.794H144.437V274.294H197.456V273.794ZM214.523 238.546C206.879 249.142 200.969 261.094 197.216 273.974L197.696 274.114C201.433 261.289 207.318 249.389 214.928 238.839L214.523 238.546ZM144.437 287.891H194.371V287.391H144.437V287.891ZM127.219 305.317C127.219 295.705 134.946 287.891 144.437 287.891V287.391C134.664 287.391 126.719 295.435 126.719 305.317H127.219ZM144.437 322.743C134.946 322.743 127.219 314.928 127.219 305.317H126.719C126.719 315.199 134.664 323.243 144.437 323.243V322.743ZM193.956 322.743H144.437V323.243H193.956V322.743ZM192.563 306.677C192.563 312.227 192.96 317.684 193.709 323.027L194.204 322.958C193.458 317.637 193.063 312.203 193.063 306.677H192.563ZM194.124 287.6C193.103 293.809 192.563 300.18 192.563 306.677H193.063C193.063 300.207 193.601 293.864 194.618 287.681L194.124 287.6ZM144.437 371.691C134.946 371.691 127.219 363.877 127.219 354.265H126.719C126.719 364.147 134.664 372.191 144.437 372.191V371.691ZM212.82 371.691H144.437V372.191H212.82V371.691ZM196.458 336.653C199.856 349.471 205.375 361.416 212.613 372.082L213.027 371.801C205.82 361.181 200.324 349.288 196.941 336.525L196.458 336.653ZM144.437 336.839H196.7V336.339H144.437V336.839ZM127.219 354.265C127.219 344.654 134.946 336.839 144.437 336.839V336.339C134.664 336.339 126.719 344.383 126.719 354.265H127.219ZM307.031 408.403C251.602 408.403 206.5 362.771 206.5 306.677H206C206 363.042 251.32 408.903 307.031 408.903V408.403ZM407.563 306.677C407.563 362.771 362.461 408.403 307.031 408.403V408.903C362.743 408.903 408.063 363.042 408.063 306.677H407.563ZM307.031 204.951C362.461 204.951 407.563 250.583 407.563 306.677H408.063C408.063 250.312 362.743 204.451 307.031 204.451V204.951ZM206.5 306.677C206.5 250.583 251.602 204.951 307.031 204.951V204.451C251.32 204.451 206 250.312 206 306.677H206.5ZM306.999 298.169C297.673 298.169 290.143 291.53 290.143 283.438H289.643C289.643 291.867 297.461 298.669 306.999 298.669V298.169ZM339.906 329.136C339.906 312.046 325.13 298.169 306.999 298.169V298.669C324.883 298.669 339.406 312.351 339.406 329.136H339.906ZM314.831 359.21C329.196 355.896 339.906 343.683 339.906 329.136H339.406C339.406 343.424 328.883 355.456 314.719 358.723L314.831 359.21ZM315.025 362.365V358.966H314.525V362.365H315.025ZM306.999 370.483C311.434 370.483 315.025 366.845 315.025 362.365H314.525C314.525 366.574 311.152 369.983 306.999 369.983V370.483ZM298.974 362.365C298.974 366.845 302.565 370.483 306.999 370.483V369.983C302.846 369.983 299.474 366.574 299.474 362.365H298.974ZM298.974 358.966V362.365H299.474V358.966H298.974ZM274.092 329.136C274.092 343.683 284.802 355.896 299.168 359.21L299.28 358.723C285.116 355.456 274.592 343.424 274.592 329.136H274.092ZM282.118 321.018C277.683 321.018 274.092 324.656 274.092 329.136H274.592C274.592 324.927 277.965 321.518 282.118 321.518V321.018ZM290.143 329.136C290.143 324.656 286.552 321.018 282.118 321.018V321.518C286.271 321.518 289.643 324.927 289.643 329.136H290.143ZM306.999 343.868C297.673 343.868 290.143 337.229 290.143 329.136H289.643C289.643 337.565 297.461 344.368 306.999 344.368V343.868ZM323.855 329.136C323.855 337.229 316.326 343.868 306.999 343.868V344.368C316.538 344.368 324.355 337.565 324.355 329.136H323.855ZM306.999 314.404C316.326 314.404 323.855 321.043 323.855 329.136H324.355C324.355 320.707 316.538 313.904 306.999 313.904V314.404ZM274.092 283.438C274.092 300.527 288.869 314.404 306.999 314.404V313.904C289.115 313.904 274.592 300.223 274.592 283.438H274.092ZM299.168 253.365C284.802 256.678 274.092 268.892 274.092 283.438H274.592C274.592 269.15 285.116 257.119 299.28 253.852L299.168 253.365ZM298.974 249.516V253.608H299.474V249.516H298.974ZM306.999 241.399C302.565 241.399 298.974 245.036 298.974 249.516H299.474C299.474 245.307 302.846 241.899 306.999 241.899V241.399ZM315.025 249.516C315.025 245.036 311.434 241.399 306.999 241.399V241.899C311.152 241.899 314.525 245.307 314.525 249.516H315.025ZM315.025 253.608V249.516H314.525V253.608H315.025ZM339.906 283.438C339.906 268.892 329.196 256.678 314.831 253.365L314.719 253.852C328.883 257.119 339.406 269.15 339.406 283.438H339.906ZM331.881 291.556C336.315 291.556 339.906 287.918 339.906 283.438H339.406C339.406 287.648 336.033 291.056 331.881 291.056V291.556ZM323.855 283.438C323.855 287.918 327.446 291.556 331.881 291.556V291.056C327.728 291.056 324.355 287.648 324.355 283.438H323.855ZM306.999 268.707C316.326 268.707 323.855 275.345 323.855 283.438H324.355C324.355 275.009 316.538 268.207 306.999 268.207V268.707ZM290.143 283.438C290.143 275.345 297.673 268.707 306.999 268.707V268.207C297.461 268.207 289.643 275.009 289.643 283.438H290.143Z" fill="#FF872C"/>
<path fill-rule="evenodd" clip-rule="evenodd" d="M334.305 190.494C335.471 192.217 336.472 194.075 337.29 196.047C385.505 209.586 421 254.388 421 307.427C421 371.154 369.762 423 306.781 423C273.901 423 244.227 408.863 223.368 386.288H144.187C127.146 386.288 113.281 372.259 113.281 355.015C113.281 345.112 117.859 336.275 124.982 330.541C117.859 324.807 113.281 315.97 113.281 306.067C113.281 296.164 117.859 287.326 124.982 281.592C117.859 275.859 113.281 267.021 113.281 257.118C113.281 247.215 117.859 238.378 124.982 232.644C117.859 226.91 113.281 218.073 113.281 208.17C113.281 190.926 127.146 176.897 144.187 176.897H161.71C158.289 171.865 156.281 165.777 156.281 159.221C156.281 152.665 158.289 146.577 161.71 141.545H107.906C90.8648 141.545 77 127.516 77 110.273C77 93.0292 90.8648 79 107.906 79H272.515C289.557 79 303.421 93.0292 303.421 110.273C303.421 116.828 301.413 122.916 297.993 127.949H351.796C368.838 127.949 382.703 141.978 382.703 159.221C382.703 176.465 368.838 190.494 351.796 190.494H334.305ZM369.265 159.221C369.265 149.475 361.429 141.545 351.796 141.545H187.187C177.555 141.545 169.719 149.475 169.719 159.221C169.719 168.967 177.555 176.897 187.187 176.897H308.796H351.796C361.429 176.897 369.265 168.967 369.265 159.221ZM90.4375 110.273C90.4375 120.019 98.2735 127.949 107.906 127.949H272.515C282.148 127.949 289.984 120.019 289.984 110.273C289.984 100.527 282.148 92.5968 272.515 92.5968H107.906C98.2735 92.5968 90.4375 100.527 90.4375 110.273ZM308.796 190.494H144.187C134.555 190.494 126.719 198.424 126.719 208.17C126.719 217.916 134.555 225.846 144.187 225.846H225.956C246.645 204.859 275.24 191.854 306.781 191.854C310.028 191.854 313.241 192 316.419 192.27C314.094 191.13 311.503 190.494 308.796 190.494ZM214.475 239.442H144.187C134.555 239.442 126.719 247.372 126.719 257.118C126.719 266.865 134.555 274.794 144.187 274.794H197.206C200.951 261.942 206.848 250.016 214.475 239.442ZM194.121 288.391H144.187C134.555 288.391 126.719 296.32 126.719 306.067C126.719 315.814 134.555 323.743 144.187 323.743H193.706C192.959 318.411 192.563 312.965 192.563 307.427C192.563 300.943 193.102 294.586 194.121 288.391ZM126.719 355.015C126.719 364.762 134.555 372.691 144.187 372.691H212.57C205.347 362.049 199.84 350.129 196.45 337.339H144.187C134.555 337.339 126.719 345.268 126.719 355.015ZM206 307.427C206 363.657 251.211 409.403 306.781 409.403C362.352 409.403 407.563 363.657 407.563 307.427C407.563 251.197 362.352 205.451 306.781 205.451C251.211 205.451 206 251.197 206 307.427ZM289.643 284.188C289.643 292.449 297.317 299.169 306.749 299.169C324.756 299.169 339.406 312.949 339.406 329.886C339.406 344.303 328.79 356.426 314.525 359.716V363.115C314.525 367.46 311.043 370.983 306.749 370.983C302.456 370.983 298.974 367.46 298.974 363.115V359.716C284.709 356.426 274.092 344.303 274.092 329.886C274.092 325.541 277.574 322.018 281.868 322.018C286.161 322.018 289.643 325.541 289.643 329.886C289.643 338.147 297.317 344.868 306.749 344.868C316.182 344.868 323.855 338.147 323.855 329.886C323.855 321.625 316.182 314.904 306.749 314.904C288.742 314.904 274.092 301.125 274.092 284.188C274.092 269.771 284.709 257.648 298.974 254.358V250.266C298.974 245.922 302.456 242.399 306.749 242.399C311.043 242.399 314.525 245.922 314.525 250.266V254.358C328.79 257.648 339.406 269.771 339.406 284.188C339.406 288.533 335.924 292.056 331.631 292.056C327.337 292.056 323.855 288.533 323.855 284.188C323.855 275.927 316.182 269.207 306.749 269.207C297.317 269.207 289.643 275.927 289.643 284.188Z" fill="#FF872C"/>
</g>
<defs>
<clipPath id="clip0_255_141">
<rect width="500" height="500" fill="white"/>
</clipPath>
</defs>
</svg>
