<svg width="346" height="346" viewBox="0 0 346 346" fill="none" xmlns="http://www.w3.org/2000/svg">
<path fill-rule="evenodd" clip-rule="evenodd" d="M258.305 112.494C259.471 114.217 260.472 116.075 261.29 118.047C309.505 131.586 345 176.388 345 229.427C345 293.154 293.762 345 230.781 345C197.901 345 168.227 330.863 147.368 308.288H68.1874C51.146 308.288 37.2812 294.259 37.2812 277.015C37.2812 267.112 41.8593 258.275 48.9819 252.541C41.8593 246.807 37.2812 237.97 37.2812 228.067C37.2812 218.164 41.8593 209.326 48.9819 203.592C41.8593 197.859 37.2812 189.021 37.2812 179.118C37.2812 169.215 41.8593 160.378 48.9819 154.644C41.8593 148.91 37.2812 140.073 37.2812 130.17C37.2812 112.926 51.146 98.897 68.1874 98.897H85.7098C82.2887 93.8649 80.2811 87.7769 80.2811 81.2212C80.2811 74.6655 82.2893 68.5775 85.7098 63.5453H31.9062C14.8648 63.5453 1 49.5161 1 32.2727C1 15.0292 14.8648 1 31.9062 1H196.515C213.557 1 227.421 15.0292 227.421 32.2727C227.421 38.8284 225.413 44.9163 221.993 49.9485H275.796C292.838 49.9485 306.703 63.9777 306.703 81.2212C306.703 98.4647 292.838 112.494 275.796 112.494H258.305ZM293.265 81.2212C293.265 71.475 285.429 63.5453 275.796 63.5453H111.187C101.555 63.5453 93.7186 71.475 93.7186 81.2212C93.7186 90.9674 101.555 98.897 111.187 98.897H232.796H275.796C285.429 98.897 293.265 90.9674 293.265 81.2212ZM14.4375 32.2727C14.4375 42.0189 22.2735 49.9485 31.9062 49.9485H196.515C206.148 49.9485 213.984 42.0189 213.984 32.2727C213.984 22.5265 206.148 14.5968 196.515 14.5968H31.9062C22.2735 14.5968 14.4375 22.5265 14.4375 32.2727ZM232.796 112.494H68.1874C58.5554 112.494 50.7187 120.424 50.7187 130.17C50.7187 139.916 58.5554 147.846 68.1874 147.846H149.956C170.645 126.859 199.24 113.854 230.781 113.854C234.028 113.854 237.241 114 240.419 114.27C238.094 113.13 235.503 112.494 232.796 112.494ZM138.475 161.442H68.1874C58.5547 161.442 50.7187 169.372 50.7187 179.118C50.7187 188.865 58.5547 196.794 68.1874 196.794H121.206C124.951 183.942 130.848 172.016 138.475 161.442ZM118.121 210.391H68.1874C58.5547 210.391 50.7187 218.32 50.7187 228.067C50.7187 237.814 58.5547 245.743 68.1874 245.743H117.706C116.959 240.411 116.563 234.965 116.563 229.427C116.563 222.943 117.102 216.586 118.121 210.391ZM50.7187 277.015C50.7187 286.762 58.5547 294.691 68.1874 294.691H136.57C129.347 284.049 123.84 272.129 120.45 259.339H68.1874C58.5547 259.339 50.7187 267.268 50.7187 277.015ZM130 229.427C130 285.657 175.211 331.403 230.781 331.403C286.352 331.403 331.563 285.657 331.563 229.427C331.563 173.197 286.352 127.451 230.781 127.451C175.211 127.451 130 173.197 130 229.427ZM213.643 206.188C213.643 214.449 221.317 221.169 230.749 221.169C248.756 221.169 263.406 234.949 263.406 251.886C263.406 266.303 252.79 278.426 238.525 281.716V285.115C238.525 289.46 235.043 292.983 230.749 292.983C226.456 292.983 222.974 289.46 222.974 285.115V281.716C208.709 278.426 198.092 266.303 198.092 251.886C198.092 247.541 201.574 244.018 205.868 244.018C210.161 244.018 213.643 247.541 213.643 251.886C213.643 260.147 221.317 266.868 230.749 266.868C240.182 266.868 247.855 260.147 247.855 251.886C247.855 243.625 240.182 236.904 230.749 236.904C212.742 236.904 198.092 223.125 198.092 206.188C198.092 191.771 208.709 179.648 222.974 176.358V172.266C222.974 167.922 226.456 164.399 230.749 164.399C235.043 164.399 238.525 167.922 238.525 172.266V176.358C252.79 179.648 263.406 191.771 263.406 206.188C263.406 210.533 259.924 214.056 255.631 214.056C251.337 214.056 247.855 210.533 247.855 206.188C247.855 197.927 240.182 191.207 230.749 191.207C221.317 191.207 213.643 197.927 213.643 206.188Z" fill="#FF872C"/>
<path d="M261.29 118.047L261.059 118.143L261.106 118.255L261.222 118.287L261.29 118.047ZM258.305 112.494V112.244H257.834L258.098 112.634L258.305 112.494ZM147.368 308.288L147.551 308.118L147.477 308.038H147.368V308.288ZM48.9819 252.541L49.1386 252.736L49.3805 252.541L49.1386 252.346L48.9819 252.541ZM48.9819 203.592L49.1386 203.787L49.3805 203.592L49.1386 203.398L48.9819 203.592ZM48.9819 154.644L49.1386 154.839L49.3805 154.644L49.1386 154.449L48.9819 154.644ZM85.7098 98.897V99.147H86.1821L85.9166 98.7565L85.7098 98.897ZM85.7098 63.5453L85.9166 63.6859L86.1821 63.2953H85.7098V63.5453ZM221.993 49.9485L221.786 49.808L221.521 50.1985H221.993V49.9485ZM149.956 147.846V148.096H150.06L150.134 148.021L149.956 147.846ZM240.419 114.27L240.398 114.519L240.529 114.045L240.419 114.27ZM138.475 161.442L138.678 161.589L138.964 161.192H138.475V161.442ZM121.206 196.794V197.044H121.394L121.446 196.864L121.206 196.794ZM118.121 210.391L118.368 210.431L118.416 210.141H118.121V210.391ZM117.706 245.743V245.993H117.994L117.954 245.708L117.706 245.743ZM136.57 294.691V294.941H137.042L136.777 294.551L136.57 294.691ZM120.45 259.339L120.691 259.275L120.642 259.089H120.45V259.339ZM238.525 281.716L238.469 281.473L238.275 281.517V281.716H238.525ZM222.974 281.716H223.224V281.517L223.03 281.473L222.974 281.716ZM222.974 176.358L223.03 176.602L223.224 176.557V176.358H222.974ZM238.525 176.358H238.275V176.557L238.469 176.602L238.525 176.358ZM261.521 117.951C260.697 115.964 259.687 114.091 258.512 112.354L258.098 112.634C259.254 114.343 260.248 116.186 261.059 118.143L261.521 117.951ZM345.25 229.427C345.25 176.275 309.679 131.375 261.358 117.806L261.222 118.287C309.331 131.797 344.75 176.501 344.75 229.427H345.25ZM230.781 345.25C293.902 345.25 345.25 293.289 345.25 229.427H344.75C344.75 293.019 293.621 344.75 230.781 344.75V345.25ZM147.184 308.458C168.088 331.082 197.827 345.25 230.781 345.25V344.75C197.974 344.75 168.366 330.645 147.551 308.118L147.184 308.458ZM68.1874 308.538H147.368V308.038H68.1874V308.538ZM37.0312 277.015C37.0312 294.394 51.0051 308.538 68.1874 308.538V308.038C51.2868 308.038 37.5312 294.123 37.5312 277.015H37.0312ZM48.8251 252.346C41.6459 258.126 37.0312 267.033 37.0312 277.015H37.5312C37.5312 267.191 42.0727 258.424 49.1386 252.736L48.8251 252.346ZM37.0312 228.067C37.0312 238.049 41.6459 246.956 48.8251 252.736L49.1386 252.346C42.0727 246.658 37.5312 237.891 37.5312 228.067H37.0312ZM48.8251 203.398C41.6459 209.177 37.0312 218.085 37.0312 228.067H37.5312C37.5312 218.242 42.0727 209.475 49.1386 203.787L48.8251 203.398ZM37.0312 179.118C37.0312 189.1 41.6459 198.008 48.8251 203.787L49.1386 203.398C42.0727 197.71 37.5312 188.943 37.5312 179.118H37.0312ZM48.8251 154.449C41.6459 160.229 37.0312 169.136 37.0312 179.118H37.5312C37.5312 169.294 42.0727 160.527 49.1386 154.839L48.8251 154.449ZM37.0312 130.17C37.0312 140.152 41.6459 149.059 48.8251 154.839L49.1386 154.449C42.0727 148.761 37.5312 139.994 37.5312 130.17H37.0312ZM68.1874 98.647C51.0051 98.647 37.0312 112.791 37.0312 130.17H37.5312C37.5312 113.062 51.2868 99.147 68.1874 99.147V98.647ZM85.7098 98.647H68.1874V99.147H85.7098V98.647ZM80.0311 81.2212C80.0311 87.8287 82.0547 93.9653 85.5031 99.0376L85.9166 98.7565C82.5227 93.7644 80.5311 87.7251 80.5311 81.2212H80.0311ZM85.5031 63.4048C82.0554 68.477 80.0311 74.6137 80.0311 81.2212H80.5311C80.5311 74.7173 82.5233 68.678 85.9166 63.6859L85.5031 63.4048ZM31.9062 63.7953H85.7098V63.2953H31.9062V63.7953ZM0.75 32.2727C0.75 49.6514 14.7239 63.7953 31.9062 63.7953V63.2953C15.0056 63.2953 1.25 49.3809 1.25 32.2727H0.75ZM31.9062 0.75C14.7239 0.75 0.75 14.8939 0.75 32.2727H1.25C1.25 15.1645 15.0056 1.25 31.9062 1.25V0.75ZM196.515 0.75H31.9062V1.25H196.515V0.75ZM227.671 32.2727C227.671 14.8939 213.698 0.75 196.515 0.75V1.25C213.416 1.25 227.171 15.1645 227.171 32.2727H227.671ZM222.199 50.0891C225.647 45.0168 227.671 38.8802 227.671 32.2727H227.171C227.171 38.7766 225.179 44.8159 221.786 49.808L222.199 50.0891ZM275.796 49.6985H221.993V50.1985H275.796V49.6985ZM306.953 81.2212C306.953 63.8424 292.979 49.6985 275.796 49.6985V50.1985C292.697 50.1985 306.453 64.113 306.453 81.2212H306.953ZM275.796 112.744C292.979 112.744 306.953 98.5999 306.953 81.2212H306.453C306.453 98.3294 292.697 112.244 275.796 112.244V112.744ZM258.305 112.744H275.796V112.244H258.305V112.744ZM275.796 63.7953C285.288 63.7953 293.015 71.6103 293.015 81.2212H293.515C293.515 71.3397 285.57 63.2953 275.796 63.2953V63.7953ZM111.187 63.7953H275.796V63.2953H111.187V63.7953ZM93.9686 81.2212C93.9686 71.6103 101.695 63.7953 111.187 63.7953V63.2953C101.414 63.2953 93.4686 71.3397 93.4686 81.2212H93.9686ZM111.187 98.647C101.695 98.647 93.9686 90.8321 93.9686 81.2212H93.4686C93.4686 91.1027 101.414 99.147 111.187 99.147V98.647ZM232.796 98.647H111.187V99.147H232.796V98.647ZM275.796 98.647H232.796V99.147H275.796V98.647ZM293.015 81.2212C293.015 90.8321 285.288 98.647 275.796 98.647V99.147C285.57 99.147 293.515 91.1027 293.515 81.2212H293.015ZM31.9062 49.6985C22.4144 49.6985 14.6875 41.8836 14.6875 32.2727H14.1875C14.1875 42.1541 22.1327 50.1985 31.9062 50.1985V49.6985ZM196.515 49.6985H31.9062V50.1985H196.515V49.6985ZM213.734 32.2727C213.734 41.8836 206.007 49.6985 196.515 49.6985V50.1985C206.289 50.1985 214.234 42.1541 214.234 32.2727H213.734ZM196.515 14.8468C206.007 14.8468 213.734 22.6618 213.734 32.2727H214.234C214.234 22.3912 206.289 14.3468 196.515 14.3468V14.8468ZM31.9062 14.8468H196.515V14.3468H31.9062V14.8468ZM14.6875 32.2727C14.6875 22.6618 22.4144 14.8468 31.9062 14.8468V14.3468C22.1327 14.3468 14.1875 22.3912 14.1875 32.2727H14.6875ZM68.1874 112.744H232.796V112.244H68.1874V112.744ZM50.9687 130.17C50.9687 120.559 58.6962 112.744 68.1874 112.744V112.244C58.4146 112.244 50.4687 120.288 50.4687 130.17H50.9687ZM68.1874 147.596C58.6962 147.596 50.9687 139.781 50.9687 130.17H50.4687C50.4687 140.051 58.4146 148.096 68.1874 148.096V147.596ZM149.956 147.596H68.1874V148.096H149.956V147.596ZM230.781 113.604C199.17 113.604 170.512 126.638 149.778 147.67L150.134 148.021C170.779 127.08 199.311 114.104 230.781 114.104V113.604ZM240.44 114.02C237.255 113.75 234.035 113.604 230.781 113.604V114.104C234.021 114.104 237.226 114.249 240.398 114.519L240.44 114.02ZM232.796 112.744C235.463 112.744 238.017 113.371 240.309 114.494L240.529 114.045C238.171 112.89 235.542 112.244 232.796 112.244V112.744ZM68.1874 161.692H138.475V161.192H68.1874V161.692ZM50.9687 179.118C50.9687 169.507 58.6956 161.692 68.1874 161.692V161.192C58.4139 161.192 50.4687 169.237 50.4687 179.118H50.9687ZM68.1874 196.544C58.6956 196.544 50.9687 188.73 50.9687 179.118H50.4687C50.4687 189 58.4139 197.044 68.1874 197.044V196.544ZM121.206 196.544H68.1874V197.044H121.206V196.544ZM138.273 161.296C130.629 171.892 124.719 183.844 120.966 196.724L121.446 196.864C125.183 184.039 131.068 172.139 138.678 161.589L138.273 161.296ZM68.1874 210.641H118.121V210.141H68.1874V210.641ZM50.9687 228.067C50.9687 218.455 58.6956 210.641 68.1874 210.641V210.141C58.4139 210.141 50.4687 218.185 50.4687 228.067H50.9687ZM68.1874 245.493C58.6956 245.493 50.9687 237.678 50.9687 228.067H50.4687C50.4687 237.949 58.4139 245.993 68.1874 245.993V245.493ZM117.706 245.493H68.1874V245.993H117.706V245.493ZM116.313 229.427C116.313 234.977 116.71 240.434 117.459 245.777L117.954 245.708C117.208 240.387 116.813 234.953 116.813 229.427H116.313ZM117.874 210.35C116.853 216.559 116.313 222.93 116.313 229.427H116.813C116.813 222.957 117.351 216.614 118.368 210.431L117.874 210.35ZM68.1874 294.441C58.6956 294.441 50.9687 286.627 50.9687 277.015H50.4687C50.4687 286.897 58.4139 294.941 68.1874 294.941V294.441ZM136.57 294.441H68.1874V294.941H136.57V294.441ZM120.208 259.403C123.606 272.221 129.125 284.166 136.363 294.832L136.777 294.551C129.57 283.931 124.074 272.038 120.691 259.275L120.208 259.403ZM68.1874 259.589H120.45V259.089H68.1874V259.589ZM50.9687 277.015C50.9687 267.404 58.6956 259.589 68.1874 259.589V259.089C58.4139 259.089 50.4687 267.133 50.4687 277.015H50.9687ZM230.781 331.153C175.352 331.153 130.25 285.521 130.25 229.427H129.75C129.75 285.792 175.07 331.653 230.781 331.653V331.153ZM331.313 229.427C331.313 285.521 286.211 331.153 230.781 331.153V331.653C286.493 331.653 331.813 285.792 331.813 229.427H331.313ZM230.781 127.701C286.211 127.701 331.313 173.333 331.313 229.427H331.813C331.813 173.062 286.493 127.201 230.781 127.201V127.701ZM130.25 229.427C130.25 173.333 175.352 127.701 230.781 127.701V127.201C175.07 127.201 129.75 173.062 129.75 229.427H130.25ZM230.749 220.919C221.423 220.919 213.893 214.28 213.893 206.188H213.393C213.393 214.617 221.211 221.419 230.749 221.419V220.919ZM263.656 251.886C263.656 234.796 248.88 220.919 230.749 220.919V221.419C248.633 221.419 263.156 235.101 263.156 251.886H263.656ZM238.581 281.96C252.946 278.646 263.656 266.433 263.656 251.886H263.156C263.156 266.174 252.633 278.206 238.469 281.473L238.581 281.96ZM238.775 285.115V281.716H238.275V285.115H238.775ZM230.749 293.233C235.184 293.233 238.775 289.595 238.775 285.115H238.275C238.275 289.324 234.902 292.733 230.749 292.733V293.233ZM222.724 285.115C222.724 289.595 226.315 293.233 230.749 293.233V292.733C226.596 292.733 223.224 289.324 223.224 285.115H222.724ZM222.724 281.716V285.115H223.224V281.716H222.724ZM197.842 251.886C197.842 266.433 208.552 278.646 222.918 281.96L223.03 281.473C208.866 278.206 198.342 266.174 198.342 251.886H197.842ZM205.868 243.768C201.433 243.768 197.842 247.406 197.842 251.886H198.342C198.342 247.677 201.715 244.268 205.868 244.268V243.768ZM213.893 251.886C213.893 247.406 210.302 243.768 205.868 243.768V244.268C210.021 244.268 213.393 247.677 213.393 251.886H213.893ZM230.749 266.618C221.423 266.618 213.893 259.979 213.893 251.886H213.393C213.393 260.315 221.211 267.118 230.749 267.118V266.618ZM247.605 251.886C247.605 259.979 240.076 266.618 230.749 266.618V267.118C240.288 267.118 248.105 260.315 248.105 251.886H247.605ZM230.749 237.154C240.076 237.154 247.605 243.793 247.605 251.886H248.105C248.105 243.457 240.288 236.654 230.749 236.654V237.154ZM197.842 206.188C197.842 223.277 212.619 237.154 230.749 237.154V236.654C212.865 236.654 198.342 222.973 198.342 206.188H197.842ZM222.918 176.115C208.552 179.428 197.842 191.642 197.842 206.188H198.342C198.342 191.9 208.866 179.869 223.03 176.602L222.918 176.115ZM222.724 172.266V176.358H223.224V172.266H222.724ZM230.749 164.149C226.315 164.149 222.724 167.786 222.724 172.266H223.224C223.224 168.057 226.596 164.649 230.749 164.649V164.149ZM238.775 172.266C238.775 167.786 235.184 164.149 230.749 164.149V164.649C234.902 164.649 238.275 168.057 238.275 172.266H238.775ZM238.775 176.358V172.266H238.275V176.358H238.775ZM263.656 206.188C263.656 191.642 252.946 179.428 238.581 176.115L238.469 176.602C252.633 179.869 263.156 191.9 263.156 206.188H263.656ZM255.631 214.306C260.065 214.306 263.656 210.668 263.656 206.188H263.156C263.156 210.398 259.783 213.806 255.631 213.806V214.306ZM247.605 206.188C247.605 210.668 251.196 214.306 255.631 214.306V213.806C251.478 213.806 248.105 210.398 248.105 206.188H247.605ZM230.749 191.457C240.076 191.457 247.605 198.095 247.605 206.188H248.105C248.105 197.759 240.288 190.957 230.749 190.957V191.457ZM213.893 206.188C213.893 198.095 221.423 191.457 230.749 191.457V190.957C221.211 190.957 213.393 197.759 213.393 206.188H213.893Z" fill="#FF872C"/>
</svg>
